Coordinates
version=1
nRows=14
nColumns=63
inDegrees=yes

Units are S.I. units (second, meters, Newtons, ...)
If the header above contains a line with 'inDegrees', this indicates whether rotational values are in degrees (yes) or radians (no).

endheader
time	pelvis_tilt	pelvis_list	pelvis_rotation	pelvis_tx	pelvis_ty	pelvis_tz	hip_flexion_r	hip_adduction_r	hip_rotation_r	knee_angle_r	knee_angle_r_beta	ankle_angle_r	subtalar_angle_r	mtp_angle_r	hip_flexion_l	hip_adduction_l	hip_rotation_l	knee_angle_l	knee_angle_l_beta	ankle_angle_l	subtalar_angle_l	mtp_angle_l	L5_S1_Flex_Ext	L5_S1_Lat_Bending	L5_S1_axial_rotation	L4_L5_Flex_Ext	L4_L5_Lat_Bending	L4_L5_axial_rotation	L3_L4_Flex_Ext	L3_L4_Lat_Bending	L3_L4_axial_rotation	L2_L3_Flex_Ext	L2_L3_Lat_Bending	L2_L3_axial_rotation	L1_L2_Flex_Ext	L1_L2_Lat_Bending	L1_L2_axial_rotation	L1_T12_Flex_Ext	L1_T12_Lat_Bending	L1_T12_axial_rotation	Abs_r3	Abs_r2	Abs_r1	Abs_t1	Abs_t2	neck_flexion	neck_bending	neck_rotation	arm_flex_r	arm_add_r	arm_rot_r	elbow_flex_r	pro_sup_r	wrist_flex_r	wrist_dev_r	arm_flex_l	arm_add_l	arm_rot_l	elbow_flex_l	pro_sup_l	wrist_flex_l	wrist_dev_l
1.796610	1.928624	-2.706493	94.278375	0.157186	0.986748	0.445484	2.516987	1.469481	-10.616961	7.418839	0.129483	33.774539	16.829400	0.000000	0.897765	-1.995819	6.609121	1.007004	0.017576	28.649846	-4.072327	0.000000	0.076089	0.487575	-0.478249	0.141305	0.648475	-0.508139	0.125006	1.185490	-0.508139	0.086962	1.185490	-0.418468	0.070656	0.994263	-0.388577	0.043477	0.755254	-0.358687	0.543495	5.515547	-2.659877	0.000000	0.000000	26.880451	-5.407246	10.715099	12.709416	-8.909496	120.066868	10.696205	4.894370	-3.216601	-9.743014	15.310912	-3.988232	112.955553	16.759283	14.730400	-5.249603	2.620295
1.813559	1.846218	-2.738337	94.192674	0.157176	0.986639	0.445655	2.611168	1.373766	-10.706396	7.527239	0.131375	33.849903	16.957495	0.000000	0.940909	-1.900916	6.745936	1.010261	0.017632	28.603999	-4.290310	0.000000	0.078627	0.478272	-0.455196	0.146017	0.636102	-0.483646	0.129176	1.162871	-0.483646	0.089862	1.162871	-0.398296	0.073013	0.975293	-0.369847	0.044927	0.740844	-0.341397	0.561622	5.410311	-2.531663	0.000000	0.000000	26.877712	-5.436965	10.606563	12.696582	-8.820631	120.462890	10.533351	4.655340	-3.138081	-9.821363	15.383751	-4.005887	112.624942	16.835612	14.901660	-5.210220	2.860803
1.830508	1.751454	-2.793860	94.085238	0.157222	0.986500	0.445937	2.750038	1.260695	-10.822294	7.684775	0.134125	33.900727	17.103513	0.000000	1.010280	-1.791784	7.042228	1.006232	0.017562	28.508007	-4.741173	0.000000	0.082325	0.467272	-0.428899	0.152886	0.621472	-0.455705	0.135252	1.136125	-0.455705	0.094089	1.136125	-0.375287	0.076447	0.952861	-0.348481	0.047041	0.723804	-0.321674	0.588040	5.285873	-2.385408	0.000000	0.000000	26.885673	-5.428883	10.521000	12.713709	-8.708987	121.100530	10.340860	4.283100	-3.036724	-9.920309	15.493239	-4.014540	112.562636	16.893344	14.891930	-5.141200	3.056606
1.847458	1.659068	-2.859867	93.938107	0.157333	0.986345	0.446313	2.913221	1.151705	-10.905645	7.869244	0.137344	33.924853	17.235001	0.000000	1.098726	-1.690625	7.017650	1.014207	0.017701	28.517167	-4.765657	0.000000	0.085403	0.456732	-0.396565	0.158603	0.607454	-0.421350	0.140309	1.110499	-0.421350	0.097608	1.110499	-0.346994	0.079306	0.931368	-0.322209	0.048800	0.707478	-0.297424	0.610028	5.166646	-2.205576	0.000000	0.000000	26.908677	-5.399236	10.455919	12.746575	-8.665177	121.140598	10.307689	4.268356	-3.024148	-9.995492	15.590180	-4.040507	112.292676	16.964683	15.176094	-5.088479	3.260405
1.864407	1.564904	-2.936270	93.773145	0.157489	0.986174	0.446738	3.095155	1.041145	-10.976507	8.075989	0.140953	33.946872	17.354027	0.000000	1.198563	-1.589383	7.025091	1.017011	0.017750	28.522375	-4.827112	0.000000	0.088789	0.446282	-0.363304	0.164891	0.593555	-0.386010	0.145872	1.085089	-0.386010	0.101477	1.085089	-0.317891	0.082450	0.910058	-0.295184	0.050734	0.691290	-0.272478	0.634213	5.048428	-2.020586	0.000000	0.000000	26.938285	-5.346500	10.439253	12.794432	-8.640553	121.073731	10.318006	4.391499	-3.036866	-10.055780	15.674565	-4.084099	111.908470	17.053531	15.605188	-5.079052	3.449503
1.881356	1.483294	-3.013627	93.591318	0.157693	0.986009	0.447182	3.281367	0.944890	-11.043016	8.292740	0.144736	33.976840	17.486260	0.000000	1.296818	-1.504018	7.043954	1.010541	0.017637	28.536961	-4.881229	0.000000	0.091591	0.437658	-0.327790	0.170094	0.582085	-0.348277	0.150475	1.064122	-0.348277	0.104680	1.064122	-0.286816	0.085052	0.892472	-0.266329	0.052335	0.677932	-0.245842	0.654227	4.950875	-1.823069	0.000000	0.000000	26.972106	-5.293128	10.462699	12.864354	-8.616097	121.118976	10.331252	4.403011	-3.032039	-10.120061	15.771208	-4.111958	111.716321	17.119499	15.905319	-5.066819	3.565393
1.898305	1.417594	-3.098503	93.451625	0.157860	0.985840	0.447627	3.473952	0.857265	-11.206643	8.516157	0.148635	34.034594	17.688599	0.000000	1.409098	-1.434356	7.260332	1.002332	0.017494	28.501490	-5.118773	0.000000	0.095513	0.431066	-0.301391	0.177377	0.573318	-0.320228	0.156918	1.048094	-0.320228	0.109162	1.048094	-0.263717	0.088693	0.879030	-0.244880	0.054576	0.667722	-0.226043	0.682239	4.876308	-1.676248	0.000000	0.000000	27.009742	-5.234655	10.532040	12.941428	-8.577841	121.364745	10.300252	4.284075	-2.969706	-10.168701	15.854813	-4.134777	111.537745	17.164511	16.147250	-5.062975	3.613667
1.915254	1.375243	-3.175088	93.279330	0.158090	0.985692	0.448031	3.648690	0.804509	-11.238835	8.710710	0.152031	34.078378	17.786536	0.000000	1.503139	-1.394849	7.331948	0.986644	0.017220	28.508329	-5.161518	0.000000	0.098211	0.427463	-0.269593	0.182387	0.568526	-0.286442	0.161351	1.039334	-0.286442	0.112245	1.039334	-0.235894	0.091199	0.871683	-0.219044	0.056118	0.662140	-0.202195	0.701510	4.835548	-1.499394	0.000000	0.000000	27.051409	-5.198529	10.611354	13.019703	-8.561810	121.488033	10.302039	4.272117	-2.929026	-10.215862	15.924927	-4.163141	111.307772	17.216455	16.413864	-5.071668	3.619650
1.932203	1.360834	-3.244982	93.118363	0.158315	0.985558	0.448387	3.795871	0.786445	-11.200955	8.854148	0.154534	34.098247	17.801670	0.000000	1.589039	-1.388223	7.285971	0.975674	0.017029	28.541648	-5.026777	0.000000	0.100173	0.427116	-0.240634	0.186032	0.568064	-0.255674	0.164574	1.038490	-0.255674	0.114488	1.038490	-0.210555	0.093021	0.870975	-0.195515	0.057239	0.661603	-0.180476	0.715527	4.831621	-1.338336	0.000000	0.000000	27.099661	-5.178606	10.698863	13.089386	-8.591712	121.248406	10.386586	4.538926	-2.955132	-10.247429	15.946360	-4.220471	110.683095	17.306676	17.001570	-5.155261	3.641224
1.949153	1.367668	-3.317638	92.955193	0.158540	0.985430	0.448705	3.949209	0.785779	-11.162231	8.995623	0.157003	34.118517	17.825187	0.000000	1.666081	-1.399496	7.551972	0.949851	0.016578	28.470651	-5.362607	0.000000	0.102737	0.429274	-0.211391	0.190793	0.570934	-0.224603	0.168787	1.043736	-0.224603	0.117418	1.043736	-0.184967	0.095402	0.875375	-0.171755	0.058704	0.664945	-0.158543	0.733842	4.856028	-1.175692	0.000000	0.000000	27.154394	-5.171713	10.788728	13.158848	-8.601204	121.326946	10.399373	4.576275	-2.927291	-10.277363	15.949943	-4.269849	110.055145	17.381860	17.446573	-5.235835	3.663040
1.966102	1.402476	-3.390915	92.803877	0.158751	0.985309	0.448998	4.098022	0.813603	-11.097488	9.111405	0.159024	34.117372	17.818267	0.000000	1.741404	-1.439007	7.822571	0.922339	0.016098	28.392513	-5.735934	0.000000	0.105578	0.434644	-0.184821	0.196069	0.578077	-0.196372	0.173454	1.056795	-0.196372	0.120665	1.056795	-0.161718	0.098040	0.886327	-0.150167	0.060327	0.673264	-0.138616	0.754134	4.916785	-1.027919	0.000000	0.000000	27.213999	-5.170162	10.887627	13.221624	-8.626973	121.325819	10.426104	4.627678	-2.920764	-10.280952	15.957398	-4.292483	109.666249	17.417969	17.578333	-5.286685	3.671820
1.983051	1.461942	-3.467235	92.650610	0.158969	0.985186	0.449289	4.251919	0.867846	-10.997963	9.209561	0.160737	34.102097	17.778538	0.000000	1.818230	-1.502877	8.128987	0.893732	0.015599	28.299729	-6.224852	0.000000	0.108953	0.442894	-0.157119	0.202337	0.589049	-0.166939	0.178999	1.076853	-0.166939	0.124523	1.076853	-0.137479	0.101174	0.903150	-0.127659	0.062256	0.686043	-0.117840	0.778242	5.010108	-0.873851	0.000000	0.000000	27.276637	-5.183382	10.978310	13.281702	-8.645225	121.540226	10.399490	4.558609	-2.889933	-10.291592	15.959460	-4.310850	109.289093	17.448763	17.626158	-5.331561	3.706763
2.000000	1.534327	-3.544490	92.479405	0.159211	0.985064	0.449596	4.417418	0.937330	-10.862349	9.304705	0.162398	34.086200	17.717429	0.000000	1.896263	-1.581506	8.234698	0.871725	0.015214	28.254373	-6.519106	0.000000	0.112309	0.452686	-0.125492	0.208569	0.602073	-0.133335	0.184513	1.100662	-0.133335	0.128358	1.100662	-0.109805	0.104290	0.923118	-0.101962	0.064173	0.701211	-0.094119	0.802212	5.120879	-0.697946	0.000000	0.000000	27.338382	-5.206110	11.062855	13.328399	-8.691941	121.505145	10.422320	4.596129	-2.912935	-10.287062	15.948792	-4.328863	108.834687	17.473230	17.696250	-5.360188	3.798090
2.016949	1.616194	-3.619771	92.304757	0.159469	0.984946	0.449908	4.586493	1.018270	-10.712693	9.393145	0.163941	34.074118	17.640103	0.000000	1.974105	-1.671248	8.154664	0.858058	0.014976	28.239779	-6.624752	0.000000	0.115565	0.463487	-0.093538	0.214617	0.616437	-0.099384	0.189863	1.126922	-0.099384	0.132080	1.126922	-0.081846	0.107314	0.945142	-0.076000	0.066034	0.717941	-0.070153	0.825473	5.243056	-0.520230	0.000000	0.000000	27.394023	-5.216237	11.156790	13.362870	-8.759256	121.267223	10.484883	4.714518	-2.974661	-10.280015	15.912491	-4.364501	108.147850	17.516844	17.899768	-5.407303	3.952977
